<svg xmlns="http://www.w3.org/2000/svg" width="16" height="16" viewBox="0 0 16 16">
  <g fill="none" fill-rule="evenodd">
    <rect width="16" height="16" rx="8"/>
    <path fill="#000" d="M1.53582989,3.98829545 C1.53582989,3.90193139 1.50459437,3.84039791 1.44212241,3.80369318 C1.37965044,3.76698845 1.26224798,3.73568195 1.08991152,3.70977273 C1.04682741,3.70113632 1.02528567,3.66443214 1.02528567,3.59965909 C1.02528567,3.57374987 1.02959402,3.53920476 1.03821084,3.49602273 C1.17608001,3.50465913 1.31933255,3.51221588 1.46797275,3.51869318 C1.61661295,3.52517049 1.74047792,3.52840909 1.83957139,3.52840909 C1.94297326,3.52840909 2.06683824,3.52517049 2.21117003,3.51869318 C2.35550181,3.51221588 2.49013765,3.50465913 2.61508159,3.49602273 C2.62369841,3.53920476 2.62800676,3.57374987 2.62800676,3.59965909 C2.62800676,3.66875035 2.60431085,3.70545452 2.55691832,3.70977273 C2.3975071,3.73568195 2.28872134,3.76698845 2.23055778,3.80369318 C2.17239422,3.84039791 2.14331288,3.90193139 2.14331288,3.98829545 L2.14331288,6.79295455 C2.14331288,7.09522878 2.13038784,7.3543171 2.10453737,7.57022727 C2.0786869,7.78613744 2.02267839,7.98153322 1.93651016,8.15642045 C1.85034193,8.33130769 1.72755404,8.49755603 1.56814281,8.65517045 C1.40873159,8.81278488 1.19762259,8.98227182 0.934809481,9.16363636 C0.878800131,9.12045433 0.850795876,9.07511387 0.850795876,9.02761364 C0.850795876,8.99738621 0.861566743,8.97147738 0.883108801,8.94988636 C1.12007144,8.72102158 1.28809697,8.4878421 1.38719043,8.25034091 C1.4862839,8.01283972 1.53582989,7.74295606 1.53582989,7.44068182 L1.53582989,3.98829545 Z M6.50788093,3.46363636 C6.5337314,3.45499996 6.55527314,3.45068182 6.57250678,3.45068182 C6.6155909,3.45068182 6.64574933,3.47874972 6.66298297,3.53488636 L7.75515984,6.67636364 L8.67284692,4.04659091 C8.68146374,4.02068169 8.68792626,3.99693193 8.69223467,3.97534091 C8.69654308,3.95374989 8.69869726,3.93431827 8.69869726,3.91704545 C8.69869726,3.85659061 8.66746174,3.81125015 8.60498977,3.78102273 C8.54251781,3.7507953 8.44234874,3.72704554 8.30447957,3.70977273 C8.25708704,3.70545452 8.23339114,3.66875035 8.23339114,3.59965909 C8.23339114,3.56511346 8.23769948,3.53056835 8.24631631,3.49602273 C8.35833501,3.50465913 8.47573746,3.51221588 8.59852719,3.51869318 C8.72131692,3.52517049 8.83010268,3.52840909 8.92488773,3.52840909 C9.02828961,3.52840909 9.13922954,3.52517049 9.25771086,3.51869318 C9.37619218,3.51221588 9.46989873,3.50465913 9.53883331,3.49602273 C9.53883331,3.50897734 9.54098749,3.52624989 9.5452959,3.54784091 C9.54960431,3.56943193 9.55175848,3.58670448 9.55175848,3.59965909 C9.55175848,3.66875035 9.5259084,3.70761359 9.47420746,3.71625 C9.34495511,3.73352281 9.24694022,3.75835211 9.18015984,3.79073864 C9.11337946,3.82312516 9.06491056,3.8803405 9.03475168,3.96238636 L7.67114624,7.80340909 C7.64529577,7.8120455 7.62159986,7.81636364 7.6000578,7.81636364 C7.54835686,7.81636364 7.50958174,7.77750039 7.48373127,7.69977273 L6.40447957,4.64897727 L5.30584011,7.80340909 C5.28860647,7.8120455 5.26706473,7.81636364 5.24121426,7.81636364 C5.18951333,7.81636364 5.1507382,7.77750039 5.12488773,7.69977273 L3.73543195,3.93 C3.71388989,3.86954515 3.67403768,3.8242047 3.61587413,3.79397727 C3.55771057,3.76374985 3.45107899,3.73784102 3.29597617,3.71625 C3.24858364,3.70329539 3.22488773,3.66227307 3.22488773,3.59318182 C3.22488773,3.5715908 3.22919608,3.53920476 3.2378129,3.49602273 C3.29813067,3.50034093 3.36383296,3.50465907 3.43492175,3.50897727 C3.50601054,3.51329548 3.57709826,3.51653408 3.64818705,3.51869318 C3.71927584,3.52085228 3.7882094,3.52301135 3.85498977,3.52517045 C3.92177015,3.52732956 3.98100992,3.52840909 4.03271086,3.52840909 C4.14042115,3.52840909 4.27074865,3.52517049 4.42369726,3.51869318 C4.57664587,3.51221588 4.7198984,3.50465913 4.85345916,3.49602273 C4.86207599,3.53920476 4.86638433,3.57374987 4.86638433,3.59965909 C4.86638433,3.66443214 4.84268842,3.70113632 4.7952959,3.70977273 C4.67035196,3.72272734 4.57341416,3.74539757 4.50447957,3.77778409 C4.43554499,3.81017062 4.40107821,3.85874968 4.40107821,3.92352273 C4.40107821,3.94943195 4.40754073,3.97534078 4.42046597,4.00125 L5.39631631,6.67636364 L6.50788093,3.46363636 Z" transform="translate(3.32 2.357)"/>
  </g>
</svg>
